:version 1.10
:name ASF
:units
  mass 1
  length 1
  angle deg
:documentation
  ASF file generated by Kaydara
:root
  axis xyz
  order  tx ty tz rx ry rz
  position 0 0 0
  orientation 0 0 0
:bonedata
  begin
    id 1
    name RightUpLegDummy
    direction -0.718183 -0.695806 0.00816078
    length 4.904
    axis 0 0 0 xyz
  end
  begin
    id 2
    name RightUpLeg
    direction 3.53373e-006 -0.995788 0.0916898
    length 17.4976
    axis -3.49089 -0.000906625 0.000286804 xyz
    dof rx ry rz
  end
  begin
    id 3
    name RightLeg
    direction 0.00371092 -0.995096 -0.0988419
    length 16.5821
    axis 3.68512 0.0193738 -0.131023 xyz
    dof rx ry rz
  end
  begin
    id 4
    name RightFoot
    direction 0.00079151 -0.46099 0.887405
    length 3.77069
    axis 4.81691e-005 -0.120479 -0.188788 xyz
    dof rx ry rz
  end
  begin
    id 5
    name RightToes
    direction 0 0 0
    length 0
    axis 0 0 0 xyz
    dof rx ry rz
  end
  begin
    id 6
    name SpineDummy
    direction 8.3039e-015 1 4.57515e-016
    length 4.6813
    axis 0 0 0 xyz
  end
  begin
    id 7
    name Spine
    direction -3.15643e-008 0.999988 0.00495137
    length 10.1015
    axis -0.001389 0.000121418 2.40972e-006 xyz
    dof rx ry rz
  end
  begin
    id 8
    name Spine1
    direction 0 0 0
    length 0
    axis -0.001389 0.000121451 1.30017e-006 xyz
    dof rx ry rz
  end
  begin
    id 9
    name HEadDummy
    direction -1.99912e-008 0.999999 0.00127422
    length 3.43865
    axis -0.001389 0.000121451 1.30017e-006 xyz
  end
  begin
    id 10
    name HEad
    direction 0 0 0
    length 0
    axis 0 0 0 xyz
    dof rx ry rz
  end
  begin
    id 11
    name LeftShoulder1Dummy
    direction 0.998891 -0.0402509 -0.0244456
    length 3.5433
    axis -0.001389 0.000121451 1.30017e-006 xyz
  end
  begin
    id 12
    name LeftShoulder1
    direction 0.99951 -0.000327763 0.0313091
    length 4.05031
    axis -0.001389 0.000121451 1.30017e-006 xyz
    dof rx ry rz
  end
  begin
    id 13
    name LeftArm
    direction 0.998561 -0.00100056 -0.0536182
    length 10.3537
    axis -23.1894 0.134784 0.967509 xyz
    dof rx ry rz
  end
  begin
    id 14
    name LeftForeArm
    direction 0.998903 0.00866432 0.046012
    length 8.70632
    axis -9.91835 -0.06569 -0.177794 xyz
    dof rx ry rz
  end
  begin
    id 15
    name LeftHand
    direction 0 0 0
    length 0
    axis 0 0 0 xyz
    dof rx ry rz
  end
  begin
    id 16
    name RightShoulderDummy
    direction -0.998891 -0.0402509 -0.0244414
    length 3.5433
    axis -0.001389 0.000121451 1.30017e-006 xyz
  end
  begin
    id 17
    name RightShoulder
    direction -0.99951 -0.000327807 0.0313133
    length 4.05031
    axis 0.215806 0.000203643 -0.0068026 xyz
    dof rx ry rz
  end
  begin
    id 18
    name RightArm
    direction -0.998573 -0.000999564 -0.053403
    length 10.3947
    axis -23.2009 -0.134239 -0.964101 xyz
    dof rx ry rz
  end
  begin
    id 19
    name RightForeArm
    direction -0.998898 0.00868028 0.0461306
    length 8.68355
    axis -9.92322 0.0658061 0.178868 xyz
    dof rx ry rz
  end
  begin
    id 20
    name RightHand
    direction 0 0 0
    length 0
    axis 0 0 0 xyz
    dof rx ry rz
  end
  begin
    id 21
    name LeftUpLegDummy
    direction 0.718183 -0.695806 0.00816078
    length 4.904
    axis 0 0 0 xyz
  end
  begin
    id 22
    name LeftUpLeg
    direction -6.81752e-006 -0.995793 0.0916337
    length 17.4976
    axis -3.48766 0.00143442 -0.000524262 xyz
    dof rx ry rz
  end
  begin
    id 23
    name LeftLeg
    direction -0.00601358 -0.995091 -0.0987824
    length 16.5821
    axis 3.68178 -0.00654042 -0.000285133 xyz
    dof rx ry rz
  end
  begin
    id 24
    name LeftFoot
    direction -0.00417578 -0.460984 0.887399
    length 3.77069
    axis 1.87233e-006 4.66016e-005 -8.6538e-006 xyz
    dof rx ry rz
  end
  begin
    id 25
    name LeftToes
    direction 0 0 0
    length 0
    axis 0 0 0 xyz
    dof rx ry rz
  end
:hierarchy
  begin
    root RightUpLegDummy SpineDummy LeftUpLegDummy
    RightUpLegDummy RightUpLeg
    RightUpLeg RightLeg
    RightLeg RightFoot
    RightFoot RightToes
    SpineDummy Spine
    Spine Spine1
    Spine1 HEadDummy LeftShoulder1Dummy RightShoulderDummy
    HEadDummy HEad
    LeftShoulder1Dummy LeftShoulder1
    LeftShoulder1 LeftArm
    LeftArm LeftForeArm
    LeftForeArm LeftHand
    RightShoulderDummy RightShoulder
    RightShoulder RightArm
    RightArm RightForeArm
    RightForeArm RightHand
    LeftUpLegDummy LeftUpLeg
    LeftUpLeg LeftLeg
    LeftLeg LeftFoot
    LeftFoot LeftToes
  end

:SAMPLES-PER-SECOND 30
:FULLY-SPECIFIED
:DEGREES
32
root  74.6802 40.2146 0.876356 173.525 -84.8471 -175.479
RightUpLeg  2.71199 -8.70557 -6.91374
RightLeg  6.06299 -0.979683 3.10339
RightFoot  -4.51473 -0.129401 1.66192
RightToes  0.000481921 0.542163 -0.142578
Spine  -2.79625 0.392352 -0.660105
Spine1  7.47293 -0.100842 2.3565
HEad  3.97073 -0.731664 7.16397
LeftShoulder1  1.8898 -3.68789 -19.6938
LeftArm  -24.9473 17.9389 -5.40262
LeftForeArm  21.6505 -13.9898 -0.375016
LeftHand  -0.25398 0.0180481 5.50724
RightShoulder  1.18621 1.51423 16.9535
RightArm  -38.701 -12.3591 10.354
RightForeArm  -2.06167 21.0143 4.42712
RightHand  -2.05008 7.86308 -18.2305
LeftUpLeg  3.8903 5.68501 1.5145
LeftLeg  6.91948 14.7229 -2.05844
LeftFoot  -8.9378 0.0301768 1.1201
LeftToes  1.06246e-005 4.65868e-005 -8.65514e-006
33
root  74.5291 40.2051 1.10355 173.116 -84.6442 -174.839
RightUpLeg  2.63986 -8.7093 -7.13467
RightLeg  6.00391 -0.795908 2.98412
RightFoot  -4.4148 -0.142896 1.8713
RightToes  0.000481921 0.542163 -0.142578
Spine  -3.28019 0.429132 -0.443573
Spine1  8.18483 -0.074527 2.28675
HEad  1.98632 -0.746392 7.63345
LeftShoulder1  2.37337 -4.42408 -23.6053
LeftArm  -29.8742 20.0146 -6.34319
LeftForeArm  23.5174 -18.3574 -1.54004
LeftHand  -0.25398 0.0180481 5.50724
RightShoulder  1.62787 2.44059 21.0115
RightArm  -38.7877 -14.3322 12.3226
RightForeArm  -9.76503 24.7272 5.79827
RightHand  -2.51355 8.71204 -20.9158
LeftUpLeg  3.89628 5.64626 1.2589
LeftLeg  6.78235 15.1576 -2.25679
LeftFoot  -8.77326 0.0167207 1.60894
LeftToes  1.06246e-005 4.65868e-005 -8.65514e-006
34
root  74.3668 40.1894 1.33641 172.457 -84.3942 -173.98
RightUpLeg  2.67928 -8.74991 -7.37633
RightLeg  5.83588 -0.506428 2.91651
RightFoot  -4.4169 -0.158384 2.12474
RightToes  0.000481921 0.542163 -0.142578
Spine  -3.73803 0.571028 -0.119404
Spine1  8.87192 0.0360536 2.29678
HEad  -0.0278912 -0.72134 7.63545
LeftShoulder1  2.88094 -5.02314 -27.6309
LeftArm  -35.8389 21.4181 -8.98777
LeftForeArm  25.9987 -21.7881 -2.96257
LeftHand  -0.25398 0.0180481 5.50724
RightShoulder  2.13905 3.40504 24.8372
RightArm  -37.0713 -16.0359 14.9588
RightForeArm  -15.9435 26.7223 6.53282
RightHand  -2.77317 9.39122 -21.9876
LeftUpLeg  3.95915 5.66586 1.01932
LeftLeg  6.68017 15.5634 -2.43082
LeftFoot  -8.86393 0.00505669 2.23726
LeftToes  1.06246e-005 4.65868e-005 -8.65514e-006
35
root  74.2017 40.1607 1.56419 171.817 -84.1564 -173.283
RightUpLeg  2.85707 -8.79759 -7.66
RightLeg  5.762 -0.14055 2.83124
RightFoot  -4.62053 -0.18369 2.59255
RightToes  0.000481921 0.542163 -0.142578
Spine  -4.09301 0.714197 -0.00083086
Spine1  9.5825 0.0600734 2.65497
HEad  -2.04315 -0.698023 7.32792
LeftShoulder1  3.43378 -5.58222 -31.688
LeftArm  -39.8718 21.7795 -12.9939
LeftForeArm  25.1676 -23.0565 -3.55321
LeftHand  -0.25398 0.0180481 5.50724
RightShoulder  2.58534 4.17452 27.6496
RightArm  -34.0229 -16.7205 18.8205
RightForeArm  -19.2371 25.5328 6.40133
RightHand  -2.53375 9.04165 -20.596
LeftUpLeg  4.1269 5.74909 0.79979
LeftLeg  6.77043 15.7772 -2.52924
LeftFoot  -9.24901 0.0085092 2.57543
LeftToes  1.06246e-005 4.65868e-005 -8.65514e-006
36
root  74.0416 40.1152 1.78345 170.934 -84.0567 -172.522
RightUpLeg  3.10165 -8.85907 -7.97056
RightLeg  6.01812 0.173231 2.70781
RightFoot  -5.00418 -0.212401 3.22015
RightToes  0.000481921 0.542163 -0.142578
Spine  -4.53465 0.800295 0.299609
Spine1  10.6219 0.0587643 2.76521
HEad  -3.88426 -0.792241 6.84925
LeftShoulder1  4.31585 -6.73104 -36.0015
LeftArm  -39.6153 20.5231 -16.6543
LeftForeArm  18.1907 -20.5503 -2.58391
LeftHand  -0.25398 0.0180481 5.50724
RightShoulder  3.06267 4.99525 30.056
RightArm  -30.1974 -16.3643 23.0397
RightForeArm  -18.7427 21.1883 5.50835
RightHand  -1.83476 7.45374 -16.8282
LeftUpLeg  4.37097 5.93509 0.642929
LeftLeg  7.1442 15.6483 -2.56368
LeftFoot  -9.81978 0.0242204 2.62221
LeftToes  1.06246e-005 4.65868e-005 -8.65514e-006
37
root  73.8908 40.047 1.98639 169.543 -84.2524 -171.43
RightUpLeg  3.31636 -9.03071 -8.25722
RightLeg  6.83028 0.371877 2.47495
RightFoot  -5.76175 -0.225375 3.81997
RightToes  0.000481921 0.542163 -0.142578
Spine  -4.91935 0.806891 0.96737
Spine1  11.8299 0.0938 2.28963
HEad  -5.35065 -0.928034 6.25369
LeftShoulder1  5.73093 -8.73614 -40.491
LeftArm  -32.5665 17.7419 -18.9551
LeftForeArm  5.25939 -14.5577 -0.328349
LeftHand  -0.25398 0.0180481 5.50724
RightShoulder  3.68392 6.03446 32.6681
RightArm  -27.7699 -15.7589 26.8934
RightForeArm  -13.6396 15.6538 4.53763
RightHand  -1.08707 5.44258 -12.0001
LeftUpLeg  4.66566 6.25054 0.566603
LeftLeg  7.80324 15.0852 -2.55653
LeftFoot  -10.5572 0.0450547 2.71691
LeftToes  1.06246e-005 4.65868e-005 -8.65514e-006
38
root  73.7549 39.9478 2.15661 168.631 -84.7318 -171.01
RightUpLeg  3.27447 -9.50629 -8.50799
RightLeg  8.62178 0.642617 1.89778
RightFoot  -7.08265 -0.215074 4.50434
RightToes  0.000481921 0.542163 -0.142578
Spine  -4.81405 0.681029 1.34356
Spine1  12.7445 0.00585148 1.80944
HEad  -6.53201 -0.788434 5.70188
LeftShoulder1  7.47919 -11.0579 -44.7381
LeftArm  -25.2039 14.4863 -20.2079
LeftForeArm  -1.75618 -8.01762 -0.267178
LeftHand  -0.25398 0.0180481 5.50724
RightShoulder  4.3353 7.0598 35.0802
RightArm  -27.902 -15.5238 30.8462
RightForeArm  -7.48243 11.2849 3.55104
RightHand  -0.684758 4.16959 -8.69944
LeftUpLeg  5.02808 6.65417 0.465111
LeftLeg  8.716 14.18 -2.48273
LeftFoot  -11.5545 0.0744828 2.77993
LeftToes  1.06246e-005 4.65868e-005 -8.65514e-006
39
root  73.6385 39.8191 2.2842 170.042 -85.084 -173.071
RightUpLeg  2.43138 -9.86048 -8.6585
RightLeg  12.0763 0.682196 0.794119
RightFoot  -8.44449 -0.196886 5.51431
RightToes  0.000481921 0.542163 -0.142578
Spine  -4.10077 0.437821 0.778105
Spine1  13.3307 -0.35707 1.9908
HEad  -7.76748 -0.0840636 5.24339
LeftShoulder1  9.10446 -12.9314 -48.3714
LeftArm  -20.3867 11.1274 -21.3334
LeftForeArm  2.28671 -4.14169 -1.80765
LeftHand  -0.25398 0.0180481 5.50724
RightShoulder  4.8441 7.84751 36.6796
RightArm  -29.1138 -15.5985 35.1984
RightForeArm  -5.45144 9.08376 2.77372
RightHand  -0.644383 3.7622 -8.48138
LeftUpLeg  5.44426 7.10622 0.233297
LeftLeg  9.84813 13.3487 -2.32719
LeftFoot  -12.7794 0.107105 2.45166
LeftToes  1.06246e-005 4.65868e-005 -8.65514e-006
40
root  73.5336 39.6773 2.37958 173.491 -84.7692 -177.2
RightUpLeg  0.217492 -8.49232 -8.58117
RightLeg  17.6459 -1.03692 -0.630244
RightFoot  -8.79383 -0.206798 6.54958
RightToes  0.000481921 0.542163 -0.142578
Spine  -2.98833 0.208828 -0.455911
Spine1  13.8187 -0.888034 2.72915
HEad  -9.34836 1.19365 4.56036
LeftShoulder1  10.2243 -14.0023 -50.9924
LeftArm  -15.2338 7.30335 -22.9782
LeftForeArm  12.3379 -3.63603 -3.82003
LeftHand  -0.25398 0.0180481 5.50724
RightShoulder  5.19308 8.42024 37.5264
RightArm  -29.4669 -15.7138 38.9351
RightForeArm  -5.66943 8.76671 2.7161
RightHand  -0.717603 3.66876 -9.50578
LeftUpLeg  5.84772 7.57753 -0.0747737
LeftLeg  11.1117 13.1317 -2.11721
LeftFoot  -14.0352 0.128012 1.85788
LeftToes  1.06246e-005 4.65868e-005 -8.65514e-006
41
root  73.4145 39.5611 2.47035 175.348 -83.8355 -179.648
RightUpLeg  -3.17111 -6.03424 -8.29399
RightLeg  24.6503 -3.96715 -2.2094
RightFoot  -7.69735 -0.270253 6.8689
RightToes  0.000481921 0.542163 -0.142578
Spine  -1.53948 -0.0336587 -1.5734
Spine1  14.0118 -1.50916 3.62652
HEad  -11.2217 2.86095 3.48316
LeftShoulder1  10.6895 -14.3735 -52.1719
LeftArm  -8.61749 3.31401 -25.3969
LeftForeArm  23.7019 -6.42123 -6.33398
LeftHand  -0.25398 0.0180481 5.50724
RightShoulder  5.43461 8.86841 37.8875
RightArm  -28.1911 -15.8686 40.8641
RightForeArm  -1.41181 9.71478 3.02821
RightHand  -0.608216 3.14175 -8.49817
LeftUpLeg  6.3311 7.91449 -0.293745
LeftLeg  12.1003 13.6261 -1.91727
LeftFoot  -15.0818 0.136544 1.40401
LeftToes  1.06246e-005 4.65868e-005 -8.65514e-006
42
root  73.2532 39.4947 2.56989 174.983 -82.9588 -179.746
RightUpLeg  -7.01397 -5.27408 -7.83408
RightLeg  31.6486 -5.41493 -3.81446
RightFoot  -6.21607 -0.322702 6.26454
RightToes  0.000481921 0.542163 -0.142578
Spine  0.340343 -0.47799 -2.40236
Spine1  13.4571 -2.3417 4.664
HEad  -13.047 4.60642 2.47229
LeftShoulder1  10.6592 -14.3908 -51.9739
LeftArm  1.94224 0.0986174 -28.6697
LeftForeArm  29.9778 -12.702 -7.27244
LeftHand  -0.25398 0.0180481 5.50724
RightShoulder  5.55819 9.19939 37.7222
RightArm  -25.9924 -16.2742 40.9387
RightForeArm  8.29041 11.4604 3.17734
RightHand  -0.354383 2.32614 -5.58474
LeftUpLeg  7.03563 7.94357 -0.400818
LeftLeg  12.4226 14.3328 -1.79267
LeftFoot  -15.8061 0.135807 1.04991
LeftToes  1.06246e-005 4.65868e-005 -8.65514e-006
43
root  73.0332 39.4782 2.66809 173.329 -82.5424 -178.367
RightUpLeg  -10.6405 -5.9903 -7.17592
RightLeg  37.1439 -5.63215 -4.81152
RightFoot  -5.61164 -0.314728 5.5162
RightToes  0.000481921 0.542163 -0.142578
Spine  2.44415 -1.10147 -3.07225
Spine1  12.1659 -3.33869 5.91827
HEad  -14.4016 6.07265 2.0514
LeftShoulder1  10.5027 -14.4184 -51.1509
LeftArm  15.2031 -2.16559 -32.1093
LeftForeArm  27.5052 -21.0126 -4.65446
LeftHand  -0.25398 0.0180481 5.50724
RightShoulder  5.5409 9.35289 37.0853
RightArm  -23.2043 -17.0691 39.9063
RightForeArm  15.4653 13.6271 3.36176
RightHand  -0.2767 2.05562 -4.54806
LeftUpLeg  7.92614 7.71845 -0.370092
LeftLeg  12.0402 14.8094 -1.81712
LeftFoot  -16.1716 0.12403 0.637925
LeftToes  1.06246e-005 4.65868e-005 -8.65514e-006
44
root  72.7424 39.4904 2.74461 170.246 -82.3485 -175.298
RightUpLeg  -13.7513 -7.56339 -6.16111
RightLeg  40.1049 -5.36871 -5.10282
RightFoot  -5.78473 -0.307135 5.45515
RightToes  0.000481921 0.542163 -0.142578
Spine  4.30862 -1.65329 -3.42106
Spine1  10.6984 -4.18266 7.0809
HEad  -15.3693 7.16474 2.21833
LeftShoulder1  10.4486 -14.5992 -50.3894
LeftArm  16.9685 -4.50472 -34.3016
LeftForeArm  29.9466 -27.676 -4.18081
LeftHand  -0.25398 0.0180481 5.50724
RightShoulder  5.41427 9.27049 36.3929
RightArm  -19.5159 -18.1605 38.3214
RightForeArm  13.8478 15.8482 3.9264
RightHand  -0.439798 2.04605 -7.03318
LeftUpLeg  8.78924 7.45675 -0.0645632
LeftLeg  11.353 15.0939 -1.97465
LeftFoot  -16.343 0.114118 0.366221
LeftToes  1.06246e-005 4.65868e-005 -8.65514e-006
